Coordinates
version=1
nRows=21
nColumns=12
inDegrees=yes

Units are S.I. units (second, meters, Newtons, ...)
Angles are in degrees

endheader
time	SC_y	SC_z	SC_x	AC_y	AC_z	AC_x	GH_y	GH_z	GH_yy	EL_x	PS_y
       0.0              -27.94          34.94          12.55          30.24         -11.12          14.02         -42.99          47.75         -156.2          99.97          158.4
   0.03827              -27.94          34.95          12.56          30.24         -11.12          14.02         -42.97          47.74         -156.2          99.97          158.4
   0.07654              -27.94          34.95          12.57          30.24         -11.13          14.02         -42.96          47.74         -156.2          99.97          158.4
    0.1148              -27.94          34.95          12.58          30.24         -11.13          14.01         -42.94          47.73         -156.2          99.97          158.3
    0.1531              -27.94          34.95          12.59          30.24         -11.13          14.01         -42.91          47.73         -156.2          99.97          158.3
    0.1913              -27.94          34.95           12.6          30.24         -11.13           14.0         -42.89          47.72         -156.1          99.97          158.3
    0.2296              -27.94          34.95          12.62          30.24         -11.13          13.99         -42.87          47.71         -156.1          99.98          158.3
    0.2679              -27.94          34.95          12.63          30.24         -11.13          13.99         -42.84           47.7         -156.1          99.98          158.3
    0.3062              -27.95          34.95          12.65          30.24         -11.13          13.98         -42.81           47.7         -156.1          99.98          158.3
    0.3444              -27.95          34.95          12.66          30.24         -11.13          13.97         -42.78          47.69         -156.0          99.98          158.3
    0.3827              -27.95          34.95          12.68          30.24         -11.13          13.97         -42.75          47.68         -156.0          99.98          158.3
     0.421              -27.95          34.96           12.7          30.24         -11.14          13.96         -42.72          47.67         -156.0          99.98          158.3
    0.4592              -27.95          34.96          12.72          30.25         -11.14          13.95         -42.68          47.66         -156.0          99.99          158.2
    0.4975              -27.95          34.96          12.75          30.25         -11.14          13.94         -42.64          47.64         -155.9          99.99          158.2
    0.5358              -27.96          34.96          12.77          30.25         -11.14          13.93         -42.59          47.63         -155.9          99.99          158.2
     0.574              -27.96          34.96           12.8          30.25         -11.14          13.92         -42.55          47.62         -155.9          100.0          158.2
    0.6123              -27.96          34.96          12.83          30.25         -11.15           13.9         -42.49           47.6         -155.8          100.0          158.2
    0.6506              -27.96          34.97          12.86          30.25         -11.15          13.89         -42.44          47.58         -155.8          100.0          158.2
    0.6888              -27.97          34.97          12.89          30.25         -11.15          13.88         -42.38          47.57         -155.7          100.0          158.1
    0.7271              -27.97          34.97          12.93          30.25         -11.16          13.86         -42.31          47.54         -155.7          100.0          158.1
    0.7654              -27.97          34.97          12.97          30.25         -11.16          13.84         -42.24          47.52         -155.6          100.0          158.1
